<mxfile host="app.diagrams.net" modified="2023-07-05T19:31:07.244Z" agent="Mozilla/5.0 (Macintosh; Intel Mac OS X 10_15_7) AppleWebKit/537.36 (KHTML, like Gecko) Chrome/108.0.0.0 Safari/537.36" version="21.5.2" etag="uXpkfr6OvXYIvqejU4P6" type="github">
  <diagram name="Page-1" id="pZGC1IO5yrAgN7BfFRgy">
    <mxGraphModel>
      <root>
        <mxCell id="0" />
        <mxCell id="1" parent="0" />
      </root>
    </mxGraphModel>
  </diagram>
</mxfile>
